<?xml version="1.0" encoding="UTF-8"?>
<svg id="Layer_2" data-name="Layer 2" xmlns="http://www.w3.org/2000/svg" viewBox="0 0 335.5 376.12">
  <defs>
    <style>
      .cls-1 {
        fill: #fff;
      }
    </style>
  </defs>
  <g id="Objects">
    <g>
      <path class="cls-1" d="M75.99,104.43c23.07,0,41.77-18.7,41.77-41.77v-20.89C117.76,18.7,99.06,0,75.99,0c-23.07,0-41.77,18.7-41.77,41.77v20.89c0,23.07,18.7,41.77,41.77,41.77Z"/>
      <path class="cls-1" d="M118.1,355.07c0,5.81-2.36,11.07-6.17,14.88s-9.08,6.17-14.89,6.17h-42.1c-11.63,0-21.06-9.43-21.06-21.05v-100.96c-1.78,1.95-3.95,3.55-6.39,4.65-2.44,1.1-5.16,1.71-8.01,1.71-10.76,0-19.48-8.73-19.48-19.49v-83.11c0-10.76,4.36-20.5,11.41-27.55,7.06-7.06,16.8-11.42,27.56-11.42h74.04c19.71,0,36.01,4.64,38.6,23.64h-32.47c-23.34,0-42.27,18.91-42.27,42.27v28.8c0,23.35,18.93,42.27,42.27,42.27"/>
    </g>
    <rect class="cls-1" x="180.91" y="82.51" width="72.22" height="236.97" rx="36.11" ry="36.11" transform="translate(418.02 -16.02) rotate(90)"/>
    <rect class="cls-1" x="180.91" y="81.51" width="72.22" height="236.97" rx="36.11" ry="36.11" transform="translate(434.04 399.99) rotate(-180)"/>
  </g>
</svg>