<?xml version="1.0" encoding="UTF-8"?>
<svg id="Layer_2" data-name="Layer 2" xmlns="http://www.w3.org/2000/svg" viewBox="0 0 804.66 804.66">
  <defs>
    <style>
      .cls-1 {
        fill: #fff;
        opacity: 0;
      }

      .cls-2 {
        fill: #0a2239;
      }
    </style>
  </defs>
  <g id="Objects">
    <g>
      <path class="cls-1" d="M402.33,27.29c50.64,0,99.75,9.91,145.97,29.46,44.66,18.89,84.77,45.93,119.22,80.39,34.45,34.45,61.5,74.56,80.39,119.22,19.55,46.22,29.46,95.33,29.46,145.97s-9.91,99.75-29.46,145.97c-18.89,44.66-45.93,84.77-80.39,119.22-34.45,34.45-74.56,61.5-119.22,80.39-46.22,19.55-95.33,29.46-145.97,29.46s-99.75-9.91-145.97-29.46c-44.66-18.89-84.77-45.93-119.22-80.39-34.45-34.45-61.5-74.56-80.39-119.22-19.55-46.22-29.46-95.33-29.46-145.97s9.91-99.75,29.46-145.97c18.89-44.66,45.93-84.77,80.39-119.22,34.45-34.45,74.56-61.5,119.22-80.39,46.22-19.55,95.33-29.46,145.97-29.46M402.33,0C180.13,0,0,180.13,0,402.33s180.13,402.33,402.33,402.33,402.33-180.13,402.33-402.33S624.53,0,402.33,0h0Z"/>
      <g>
        <path class="cls-2" d="M541.25,207.3h-276.86c-35.8,0-64.81,29.01-64.81,64.81v276.86c0,35.8,29.01,64.81,64.81,64.81h276.86c35.8,0,64.81-29.01,64.81-64.81v-276.86c0-35.8-29.01-64.81-64.81-64.81ZM581.04,538.16c0,27.95-22.65,50.59-50.59,50.59h-255.25c-27.94,0-50.59-22.65-50.59-50.59v-255.25c0-27.94,22.66-50.59,50.59-50.59h255.25c27.95,0,50.59,22.66,50.59,50.59v255.25Z"/>
        <path class="cls-2" d="M333.47,454.69v89.25c0,8.84-7.17,16-16,16h-49.09c-8.84,0-16-7.16-16-16v-89.25c0-8.83,7.16-16,16-16h49.09c8.83,0,16,7.17,16,16Z"/>
        <path class="cls-2" d="M438.98,375.39v168.55c0,8.84-7.16,16-16,16h-49.09c-8.83,0-16-7.16-16-16v-168.55c0-8.83,7.17-16,16-16h49.09c8.84,0,16,7.17,16,16Z"/>
        <path class="cls-2" d="M544.5,271.74v272.21c0,8.84-7.17,16-16,16h-49.09c-8.84,0-16-7.16-16-16v-272.21c0-8.83,7.16-16,16-16h49.09c8.83,0,16,7.17,16,16Z"/>
      </g>
    </g>
  </g>
</svg>