<?xml version="1.0" encoding="UTF-8"?>
<svg id="Layer_2" data-name="Layer 2" xmlns="http://www.w3.org/2000/svg" viewBox="0 0 804.66 804.66">
  <defs>
    <style>
      .cls-1 {
        fill: #273489;
      }

      .cls-2 {
        fill: #0197f6;
      }
    </style>
  </defs>
  <g id="Objects">
    <g>
      <path class="cls-1" d="M337.81,453.96v83.67c0,8.29-6.72,15-15,15h-46.02c-8.29,0-15-6.71-15-15v-83.67c0-8.28,6.71-15,15-15h46.02c8.28,0,15,6.72,15,15Z"/>
      <path class="cls-1" d="M436.72,379.62v158.01c0,8.29-6.71,15-15,15h-46.02c-8.28,0-15-6.71-15-15v-158.01c0-8.28,6.72-15,15-15h46.02c8.29,0,15,6.72,15,15Z"/>
      <path class="cls-1" d="M535.64,282.45v255.18c0,8.29-6.72,15-15,15h-46.02c-8.29,0-15-6.71-15-15v-255.18c0-8.28,6.71-15,15-15h46.02c8.28,0,15,6.72,15,15Z"/>
      <path class="cls-2" d="M402.33,0C180.13,0,0,180.13,0,402.33s180.13,402.33,402.33,402.33,402.33-180.13,402.33-402.33S624.53,0,402.33,0ZM667.52,667.52c-34.45,34.46-74.56,61.5-119.21,80.39-46.22,19.55-95.34,29.46-145.98,29.46s-99.75-9.91-145.97-29.46c-44.66-18.89-84.77-45.93-119.22-80.39-34.45-34.45-61.5-74.56-80.39-119.22-19.55-46.22-29.46-95.33-29.46-145.97s9.91-99.75,29.46-145.97c18.89-44.66,45.94-84.77,80.39-119.22,34.45-34.46,74.56-61.5,119.22-80.39,46.22-19.55,95.33-29.46,145.97-29.46s99.76,9.91,145.98,29.46c44.65,18.89,84.76,45.93,119.21,80.39,34.46,34.45,61.5,74.56,80.39,119.22,19.55,46.22,29.46,95.33,29.46,145.97s-9.91,99.75-29.46,145.97c-18.89,44.66-45.93,84.77-80.39,119.22Z"/>
      <g>
        <path class="cls-2" d="M532.6,222.04h-259.54c-33.56,0-60.76,27.2-60.76,60.76v259.54c0,33.56,27.2,60.76,60.76,60.76h259.54c33.56,0,60.76-27.2,60.76-60.76v-259.54c0-33.56-27.2-60.76-60.76-60.76ZM569.9,532.21c0,26.2-21.23,47.43-47.43,47.43h-239.28c-26.19,0-47.43-21.23-47.43-47.43v-239.28c0-26.19,21.24-47.43,47.43-47.43h239.28c26.2,0,47.43,21.24,47.43,47.43v239.28Z"/>
        <path class="cls-2" d="M337.81,453.96v83.67c0,8.29-6.72,15-15,15h-46.02c-8.29,0-15-6.71-15-15v-83.67c0-8.28,6.71-15,15-15h46.02c8.28,0,15,6.72,15,15Z"/>
        <path class="cls-2" d="M436.72,379.62v158.01c0,8.29-6.71,15-15,15h-46.02c-8.28,0-15-6.71-15-15v-158.01c0-8.28,6.72-15,15-15h46.02c8.29,0,15,6.72,15,15Z"/>
        <path class="cls-2" d="M535.64,282.45v255.18c0,8.29-6.72,15-15,15h-46.02c-8.29,0-15-6.71-15-15v-255.18c0-8.28,6.71-15,15-15h46.02c8.28,0,15,6.72,15,15Z"/>
      </g>
    </g>
  </g>
</svg>