<?xml version="1.0" encoding="UTF-8"?>
<svg id="Layer_2" data-name="Layer 2" xmlns="http://www.w3.org/2000/svg" viewBox="0 0 804.66 791.94">
  <defs>
    <style>
      .cls-1 {
        fill: none;
      }

      .cls-2 {
        stroke: #1d1d1b;
        stroke-miterlimit: 10;
      }

      .cls-2, .cls-3 {
        fill: #0a2239;
      }
    </style>
  </defs>
  <g id="Objects">
    <path class="cls-1" d="M402.33,26.86c50.64,0,99.75,9.76,145.97,29,44.66,18.59,84.77,45.21,119.22,79.12,34.45,33.91,61.5,73.38,80.39,117.34,19.55,45.49,29.46,93.83,29.46,143.67s-9.91,98.18-29.46,143.67c-18.89,43.95-45.93,83.43-80.39,117.34-34.45,33.91-74.56,60.53-119.22,79.12-46.22,19.24-95.33,29-145.97,29s-99.75-9.76-145.97-29c-44.66-18.59-84.77-45.21-119.22-79.12-34.45-33.91-61.5-73.38-80.39-117.34-19.55-45.49-29.46-93.83-29.46-143.67s9.91-98.18,29.46-143.67c18.89-43.95,45.93-83.43,80.39-117.34,34.45-33.91,74.56-60.53,119.22-79.12,46.22-19.24,95.33-29,145.97-29M402.33,0C180.13,0,0,177.28,0,395.97s180.13,395.97,402.33,395.97,402.33-177.28,402.33-395.97S624.53,0,402.33,0h0Z"/>
    <g>
      <path class="cls-3" d="M274.12,218.36c-7.59.67-13.39,7-13.39,14.62v335.96c0,7.14,5.09,13.2,12.11,14.46l153.34,27.31c4.29.77,8.67-.39,12-3.2,3.34-2.8,5.25-6.9,5.25-11.25V219.42c0-4.14-1.7-8.03-4.75-10.82-3.06-2.8-7.09-4.17-11.22-3.8l-153.34,13.56ZM403.24,427.92c-6.31,0-11.43-9-11.43-20.08,0-11.1,5.12-20.07,11.43-20.07s11.44,8.97,11.44,20.07-5.12,20.08-11.44,20.08Z"/>
      <polygon class="cls-2" points="666.08 399.97 546.23 310.99 546.23 357.15 453.12 357.15 453.12 442.24 546.23 442.24 546.23 488.39 666.08 399.97"/>
      <path class="cls-3" d="M535.8,344.07v-114.86c0-3.01-1.21-5.96-3.35-8.09-2.12-2.13-5.07-3.35-8.07-3.35h-71.26s0,22.88,0,22.88h59.82s0,103.43,0,103.43h22.86Z"/>
      <path class="cls-3" d="M453.12,575.04v22.88s71.26,0,71.26,0c3.01,0,5.96-1.22,8.07-3.36,2.14-2.12,3.35-5.08,3.35-8.09v-131.84s-22.86,0-22.86,0v120.41s-59.82,0-59.82,0Z"/>
    </g>
  </g>
</svg>