<?xml version="1.0" encoding="UTF-8"?>
<svg id="Layer_2" data-name="Layer 2" xmlns="http://www.w3.org/2000/svg" viewBox="0 0 804.66 804.66">
  <defs>
    <style>
      .cls-1 {
        fill: #0a2239;
      }

      .cls-2 {
        fill: #0197f6;
      }

      .cls-3 {
        opacity: 0;
      }
    </style>
  </defs>
  <g id="Objects">
    <g>
      <g class="cls-3">
        <path class="cls-2" d="M402.33,27.29c50.64,0,99.75,9.91,145.97,29.46,44.66,18.89,84.77,45.93,119.22,80.39,34.45,34.45,61.5,74.56,80.39,119.22,19.55,46.22,29.46,95.33,29.46,145.97s-9.91,99.75-29.46,145.97c-18.89,44.66-45.93,84.77-80.39,119.22-34.45,34.45-74.56,61.5-119.22,80.39-46.22,19.55-95.33,29.46-145.97,29.46s-99.75-9.91-145.97-29.46c-44.66-18.89-84.77-45.93-119.22-80.39-34.45-34.45-61.5-74.56-80.39-119.22-19.55-46.22-29.46-95.33-29.46-145.97s9.91-99.75,29.46-145.97c18.89-44.66,45.93-84.77,80.39-119.22,34.45-34.45,74.56-61.5,119.22-80.39,46.22-19.55,95.33-29.46,145.97-29.46M402.33,0C180.13,0,0,180.13,0,402.33s180.13,402.33,402.33,402.33,402.33-180.13,402.33-402.33S624.53,0,402.33,0h0Z"/>
      </g>
      <g>
        <g>
          <path class="cls-1" d="M402.33,335.86c23.07,0,41.77-18.7,41.77-41.77v-20.89c0-23.07-18.7-41.77-41.77-41.77-23.07,0-41.77,18.7-41.77,41.77v20.89c0,23.07,18.7,41.77,41.77,41.77Z"/>
          <path class="cls-1" d="M439.35,350.32h0s-74.04,0-74.04,0h0c-21.52,0-38.97,17.45-38.97,38.97v83.11c0,10.76,8.72,19.49,19.49,19.49h0c5.7,0,10.84-2.45,14.4-6.36v100.95c0,11.63,9.43,21.05,21.05,21.05h0c11.63,0,30.48,0,42.11,0h0c11.63,0,21.05-9.43,21.05-21.05v-100.95c3.56,3.91,8.69,6.36,14.4,6.36h0c10.76,0,19.49-8.72,19.49-19.49v-83.11c0-21.52-17.45-38.97-38.97-38.97Z"/>
        </g>
        <path class="cls-1" d="M278.32,301.55c23.07,0,41.77-18.7,41.77-41.77v-20.89c0-23.07-18.7-41.77-41.77-41.77-23.07,0-41.77,18.7-41.77,41.77v20.89c0,23.07,18.7,41.77,41.77,41.77Z"/>
        <path class="cls-1" d="M316.12,389.3v83.11c0,5.63,1.57,10.89,4.3,15.38v64.4c0,5.82-2.36,11.08-6.17,14.89-3.81,3.81-9.07,6.17-14.88,6.17-11.63,0-36.29,0-42.11,0-11.63,0-21.05-9.42-21.05-21.05v-100.95c-1.78,1.95-3.95,3.54-6.4,4.64s-5.15,1.71-8,1.71c-10.76,0-19.49-8.72-19.49-19.49v-83.11c0-10.76,4.36-20.51,11.42-27.56,7.05-7.05,16.79-11.42,27.56-11.42h74.04c16.94,0,31.35,10.81,36.73,25.9-20.71,5.8-35.94,24.84-35.94,47.38Z"/>
        <path class="cls-1" d="M526.34,301.55c-23.07,0-41.77-18.7-41.77-41.77v-20.89c0-23.07,18.7-41.77,41.77-41.77,23.07,0,41.77,18.7,41.77,41.77v20.89c0,23.07-18.7,41.77-41.77,41.77Z"/>
        <path class="cls-1" d="M488.54,389.3v83.11c0,5.63-1.57,10.89-4.3,15.38v64.4c0,5.82,2.36,11.08,6.17,14.89,3.81,3.81,9.07,6.17,14.88,6.17,11.63,0,36.29,0,42.11,0,11.63,0,21.05-9.42,21.05-21.05v-100.95c1.78,1.95,3.95,3.54,6.4,4.64s5.15,1.71,8,1.71c10.76,0,19.49-8.72,19.49-19.49v-83.11c0-10.76-4.36-20.51-11.42-27.56-7.05-7.05-16.79-11.42-27.56-11.42h-74.04c-16.94,0-31.35,10.81-36.73,25.9,20.71,5.8,35.94,24.84,35.94,47.38Z"/>
      </g>
    </g>
  </g>
</svg>