<?xml version="1.0" encoding="UTF-8"?>
<svg id="Layer_2" data-name="Layer 2" xmlns="http://www.w3.org/2000/svg" viewBox="0 0 804.66 804.66">
  <defs>
    <style>
      .cls-1 {
        fill: #fff;
        opacity: 0;
      }

      .cls-2 {
        fill: #0a2239;
      }
    </style>
  </defs>
  <g id="Objects">
    <g>
      <path class="cls-2" d="M530.1,227.29h-19.29v38.79c0,11.77-9.59,21.35-21.37,21.35s-21.35-9.59-21.35-21.35v-38.79h-131.5v38.79c0,11.77-9.59,21.35-21.35,21.35s-21.37-9.59-21.37-21.35v-38.79h-19.29c-31.43,0-57.02,25.58-57.02,57.02v255.52c0,31.45,25.58,57.02,57.02,57.02h255.54c31.43,0,57.02-25.57,57.02-57.02v-255.52c0-31.43-25.58-57.02-57.02-57.02ZM568.75,539.83c0,21.32-17.35,38.67-38.65,38.67h-255.54c-21.3,0-38.65-17.35-38.65-38.67v-195.77h332.83v195.77Z"/>
      <rect class="cls-2" x="304.09" y="177.43" width="22.26" height="99.77" rx="11.13" ry="11.13"/>
      <rect class="cls-2" x="478.31" y="177.43" width="22.26" height="99.77" rx="11.13" ry="11.13"/>
      <path class="cls-1" d="M402.33,27.29c50.64,0,99.75,9.91,145.97,29.46,44.66,18.89,84.77,45.93,119.22,80.39,34.45,34.45,61.5,74.56,80.39,119.22,19.55,46.22,29.46,95.33,29.46,145.97s-9.91,99.75-29.46,145.97c-18.89,44.66-45.93,84.77-80.39,119.22-34.45,34.45-74.56,61.5-119.22,80.39-46.22,19.55-95.33,29.46-145.97,29.46s-99.75-9.91-145.97-29.46c-44.66-18.89-84.77-45.93-119.22-80.39-34.45-34.45-61.5-74.56-80.39-119.22-19.55-46.22-29.46-95.33-29.46-145.97s9.91-99.75,29.46-145.97c18.89-44.66,45.93-84.77,80.39-119.22,34.45-34.45,74.56-61.5,119.22-80.39,46.22-19.55,95.33-29.46,145.97-29.46M402.33,0C180.13,0,0,180.13,0,402.33s180.13,402.33,402.33,402.33,402.33-180.13,402.33-402.33S624.53,0,402.33,0h0Z"/>
      <rect class="cls-2" x="261.28" y="378.59" width="76.02" height="67.9" rx="12.23" ry="12.23"/>
      <rect class="cls-2" x="364.32" y="378.59" width="76.02" height="67.9" rx="12.23" ry="12.23"/>
      <rect class="cls-2" x="467.36" y="378.59" width="76.02" height="67.9" rx="12.23" ry="12.23"/>
      <rect class="cls-2" x="261.28" y="476.06" width="76.02" height="67.9" rx="12.23" ry="12.23"/>
      <rect class="cls-2" x="364.32" y="476.06" width="76.02" height="67.9" rx="12.23" ry="12.23"/>
      <rect class="cls-2" x="467.36" y="476.06" width="76.02" height="67.9" rx="12.23" ry="12.23"/>
    </g>
  </g>
</svg>